<?xml version="1.0" encoding="utf-8"?>
<!-- Generator: Adobe Illustrator 22.0.1, SVG Export Plug-In . SVG Version: 6.00 Build 0)  -->
<svg version="1.1" id="Layer_1" xmlns="http://www.w3.org/2000/svg" xmlns:xlink="http://www.w3.org/1999/xlink" x="0px" y="0px" >
<style type="text/css">
	.st0{fill:#FFFFFF;}
	.st1{fill:#1A1A1A;stroke:#1A1A1A;stroke-miterlimit:10;}
</style>
	<path class="st1" d="M69.5,61.1C69.5,61.1,69.5,61.1,69.5,61.1C69.5,61.1,69.5,61.1,69.5,61.1c0-0.1,0-0.1,0-0.1c0,0,0,0,0,0
		l-7.4-12.8l3.6-6.3c0,0,0,0,0,0c0,0,0,0,0,0c0,0,0,0,0,0c0,0,0,0,0,0c0,0,0,0,0,0s0,0,0,0c0,0,0,0,0,0c0,0,0,0,0,0c0,0,0,0,0,0
		c0,0,0,0,0,0L54.6,22.3c0,0,0,0,0,0c0,0,0,0,0,0c0,0,0,0,0,0c0,0,0,0,0,0c0,0,0,0-0.1,0c0,0,0,0,0,0h-7.5c0,0,0,0,0,0c0,0,0,0,0,0
		c0,0,0,0,0,0c0,0,0,0,0,0c0,0,0,0,0,0c0,0,0,0,0,0c0,0,0,0,0,0c0,0,0,0,0,0c0,0,0,0,0,0c0,0,0,0,0,0L39.2,35H32c0,0,0,0,0,0
		c0,0,0,0,0,0c0,0,0,0,0,0c0,0,0,0,0,0c0,0,0,0,0,0c0,0,0,0,0,0c0,0,0,0,0,0c0,0,0,0,0,0c0,0,0,0,0,0c0,0,0,0,0,0L20.5,54.5
		c0,0,0,0,0,0c0,0,0,0,0,0.1c0,0,0,0,0,0.1c0,0,0,0,0,0.1c0,0,0,0,0,0.1c0,0,0,0,0,0l3.7,6.5c0,0,0,0,0,0c0,0,0,0,0,0c0,0,0,0,0,0
		c0,0,0,0,0,0c0,0,0,0,0,0c0,0,0,0,0,0c0,0,0.1,0,0.1,0c0,0,0,0,0,0c0,0,0,0,0,0c0,0,0,0,0,0h14.7l3.6,6.3c0,0,0,0,0,0c0,0,0,0,0,0
		c0,0,0,0,0,0c0,0,0,0,0,0c0,0,0,0,0,0c0,0,0,0,0,0c0,0,0.1,0,0.1,0c0,0,0,0,0,0c0,0,0,0,0,0c0,0,0,0,0,0h22.4c0,0,0.1,0,0.1,0
		c0,0,0,0,0,0c0,0,0.1,0,0.1-0.1c0,0,0,0,0,0l3.7-6.5c0,0,0,0,0,0c0,0,0,0,0,0C69.5,61.2,69.5,61.2,69.5,61.1
		C69.5,61.2,69.5,61.2,69.5,61.1C69.5,61.2,69.5,61.1,69.5,61.1C69.5,61.1,69.5,61.1,69.5,61.1z M65.3,67.3H43.6l3.4-5.9h21.7
		L65.3,67.3z M36,54.7l3.4-5.9l7.1,12.4L43.1,67L36,54.7z M68.7,60.9H47l-7.1-12.4h6.8l3.6,6.3c0,0,0,0,0,0c0,0,0,0,0,0c0,0,0,0,0,0
		c0,0,0,0,0,0c0,0,0,0,0,0c0,0,0,0,0,0c0,0,0.1,0,0.1,0c0,0,0,0,0,0c0,0,0,0,0,0c0,0,0,0,0,0H58c0,0,0.1,0,0.1,0c0,0,0,0,0,0
		c0,0,0.1,0,0.1-0.1c0,0,0,0,0,0l3.5-6L68.7,60.9z M21.1,54.7L32,35.9l3.4,5.9L24.5,60.6L21.1,54.7z M35.8,41.5l-3.4-5.9h7h7.3
		l3.4,5.9H35.8z M50.8,41.9C50.8,41.9,50.8,41.9,50.8,41.9C50.8,41.9,50.8,41.9,50.8,41.9C50.9,41.8,50.9,41.8,50.8,41.9
		c0-0.1,0-0.1,0-0.1c0,0,0,0,0,0s0,0,0,0c0,0,0,0,0,0c0,0,0,0,0,0c0,0,0,0,0,0c0,0,0,0,0,0l-3.7-6.5c0,0,0,0,0,0c0,0,0,0,0,0
		c0,0,0,0,0,0c0,0,0,0,0,0c0,0,0,0-0.1,0c0,0,0,0,0,0h-7l7-12.1l10.9,18.8l-7.1,12.4l-3.4-5.9L50.8,41.9z M54.2,22.7L65,41.5h-6.8
		L47.3,22.7H54.2z M57.9,54.4h-6.8L58.2,42H65L57.9,54.4z M25,60.9L35.8,42h14.3L46.7,48h-7.3c0,0,0,0,0,0c0,0,0,0,0,0c0,0,0,0,0,0
		c0,0,0,0,0,0c0,0,0,0,0,0c0,0,0,0,0,0c0,0,0,0,0,0c0,0,0,0,0,0c0,0,0,0,0,0c0,0,0,0,0,0l-3.7,6.5c0,0,0,0,0,0c0,0,0,0,0,0.1
		c0,0,0,0,0,0.1c0,0,0,0,0,0.1c0,0,0,0,0,0.1c0,0,0,0,0,0l3.5,6H25z"/>

</svg>
